<svg width="466" height="163" viewBox="0 0 466 163" fill="none" xmlns="http://www.w3.org/2000/svg">
<path d="M68.2266 66.3203C68.9427 66.8411 69.4635 67.2318 69.7891 67.4922C70.1797 67.6875 70.4727 67.8503 70.668 67.9805C70.9284 68.1107 71.1562 68.2734 71.3516 68.4688C71.612 68.6641 72.0026 68.957 72.5234 69.3477C72.1979 70.0638 72.0352 70.6172 72.0352 71.0078C72.0352 71.3984 72.0677 71.7891 72.1328 72.1797C72.1979 72.5052 72.263 72.8633 72.3281 73.2539C72.4583 73.6445 72.4909 74.1654 72.4258 74.8164C68.8451 77.0951 65.6549 78.918 62.8555 80.2852C60.1211 81.5872 57.4518 82.7266 54.8477 83.7031C52.3086 84.6797 49.6393 85.6237 46.8398 86.5352C44.1055 87.3815 40.9154 88.5208 37.2695 89.9531C38.7669 90.8646 40.6875 91.6784 43.0312 92.3945C45.4401 93.0456 47.8164 93.8268 50.1602 94.7383C52.569 95.5846 54.75 96.6589 56.7031 97.9609C58.6562 99.263 59.9583 100.956 60.6094 103.039C61.5208 103.104 62.3021 103.625 62.9531 104.602C63.6693 105.578 63.9622 106.717 63.832 108.02C63.181 108.41 62.5625 108.866 61.9766 109.387C61.4557 109.842 60.7721 110.201 59.9258 110.461C59.2096 110.591 58.2656 110.526 57.0938 110.266C55.987 110.005 54.75 109.647 53.3828 109.191C52.0807 108.736 50.681 108.247 49.1836 107.727C47.7513 107.206 46.3841 106.783 45.082 106.457C43.7799 106.132 42.3477 105.839 40.7852 105.578C39.2878 105.318 37.888 104.927 36.5859 104.406C36 104.146 35.4792 103.853 35.0234 103.527C34.6328 103.137 34.1445 102.876 33.5586 102.746C32.3867 102.551 31.1172 102.193 29.75 101.672C28.4479 101.086 27.1133 100.467 25.7461 99.8164C24.3789 99.1654 23.0117 98.5143 21.6445 97.8633C20.3424 97.2122 19.1055 96.6263 17.9336 96.1055C17.9987 95.7148 17.5755 95.2266 16.6641 94.6406C15.7526 94.0547 14.776 93.7292 13.7344 93.6641C13.7344 92.8828 13.4089 92.1992 12.7578 91.6133C12.1719 90.9622 11.7161 90.2461 11.3906 89.4648C10.6745 87.6419 10.9349 85.9167 12.1719 84.2891C13.4089 82.6615 15.2643 81.6849 17.7383 81.3594C18.5195 81.6198 19.1055 81.75 19.4961 81.75C19.9518 81.6849 20.5378 81.8151 21.2539 82.1406C22.4258 81.3594 23.8255 80.6107 25.4531 79.8945C27.1458 79.1133 28.7734 78.8854 30.3359 79.2109C30.5312 78.6901 30.8893 78.4297 31.4102 78.4297C31.9961 78.4297 32.3542 78.1367 32.4844 77.5508C35.1536 77.0951 37.7578 76.3789 40.2969 75.4023C42.8359 74.4258 45.3099 73.3841 47.7188 72.2773C50.1276 71.1055 52.4388 69.9661 54.6523 68.8594C56.931 67.6875 59.112 66.6458 61.1953 65.7344C62.1068 65.9948 62.9531 65.9948 63.7344 65.7344C64.5156 65.4089 65.3294 65.2786 66.1758 65.3438C65.9805 65.5391 65.9479 65.6693 66.0781 65.7344C66.2083 65.7995 66.4036 65.8646 66.6641 65.9297C66.9245 65.9297 67.1849 65.9622 67.4453 66.0273C67.7708 66.0273 68.0312 66.125 68.2266 66.3203ZM82.2891 114.367C81.638 114.367 80.6289 114.27 79.2617 114.074C78.2201 112.967 77.276 111.47 76.4297 109.582C75.6484 107.629 75.0299 105.578 74.5742 103.43C74.1836 101.216 73.9883 99.0352 73.9883 96.8867C74.0534 94.6732 74.444 92.7201 75.1602 91.0273C75.1602 90.9622 75.4531 90.181 76.0391 88.6836C76.6901 87.1862 77.5039 85.2982 78.4805 83.0195C79.457 80.6758 80.5638 78.1042 81.8008 75.3047C83.0378 72.4401 84.2747 69.6406 85.5117 66.9062C86.7487 64.1719 87.9206 61.6979 89.0273 59.4844C90.1992 57.2057 91.2083 55.4479 92.0547 54.2109C92.6406 53.2995 93.1615 52.4206 93.6172 51.5742C94.138 50.7279 94.6263 49.9466 95.082 49.2305C95.7982 48.0586 96.4492 46.9844 97.0352 46.0078C97.6862 44.9661 98.3698 44.0547 99.0859 43.2734C99.8672 42.4271 100.714 41.7109 101.625 41.125C102.536 40.474 103.643 39.9206 104.945 39.4648C105.727 39.7904 106.41 40.1484 106.996 40.5391C107.582 40.8646 108.103 41.2878 108.559 41.8086L108.852 43.1758C108.982 43.6315 109.177 43.957 109.438 44.1523C109.763 44.2826 110.023 44.3477 110.219 44.3477C111.065 44.543 111.781 44.7708 112.367 45.0312C113.018 45.2266 113.702 45.3568 114.418 45.4219C114.678 45.8125 114.906 46.2031 115.102 46.5938C115.362 46.9844 115.622 47.3424 115.883 47.668C117.185 49.556 118.259 51.3789 119.105 53.1367C119.952 54.8945 119.952 56.8151 119.105 58.8984L119.203 59.9727C119.529 60.4284 119.691 60.8516 119.691 61.2422C119.691 61.6328 119.626 62.1862 119.496 62.9023C119.431 63.4232 119.366 64.0091 119.301 64.6602C119.301 65.2461 119.398 65.8971 119.594 66.6133L120.277 67.3945C121.319 67.9154 122.328 68.1758 123.305 68.1758C124.607 68.1758 125.779 67.8828 126.82 67.2969C127.862 66.7109 128.839 66.125 129.75 65.5391C130.466 65.0182 131.117 64.5951 131.703 64.2695C132.354 63.944 132.973 63.7161 133.559 63.5859C134.926 62.2839 136.163 61.1445 137.27 60.168C138.441 59.1263 139.646 58.0846 140.883 57.043C143.227 55.1549 145.505 53.1367 147.719 50.9883C149.932 48.7747 151.69 46.0404 152.992 42.7852C153.708 42.3294 154.522 42.1016 155.434 42.1016C156.345 42.1016 157.257 42.2969 158.168 42.6875C159.079 43.013 159.991 43.4036 160.902 43.8594C161.098 43.9896 161.26 44.0872 161.391 44.1523C161.586 44.2174 161.781 44.3151 161.977 44.4453C161.977 45.1615 162.27 45.8125 162.855 46.3984C163.181 46.6589 163.409 46.8216 163.539 46.8867C163.669 46.9518 163.799 47.0169 163.93 47.082C164.451 47.4076 164.874 47.7005 165.199 47.9609C165.59 48.2214 165.883 48.5794 166.078 49.0352C166.664 50.793 167.641 52.1602 169.008 53.1367C168.878 53.8529 168.91 54.569 169.105 55.2852C169.301 55.9362 169.529 56.5872 169.789 57.2383C169.919 57.4987 170.017 57.7591 170.082 58.0195C170.147 58.2148 170.245 58.4753 170.375 58.8008L168.227 58.6055L168.52 60.7539C168.715 61.8607 168.617 63.0977 168.227 64.4648C167.901 65.832 167.51 66.9062 167.055 67.6875C167.185 69.6406 167.25 71.2031 167.25 72.375C167.25 73.4818 167.185 74.5234 167.055 75.5C166.924 76.4766 166.697 77.4206 166.371 78.332C166.111 79.1784 165.753 80.0898 165.297 81.0664C165.557 86.0143 164.971 90.5391 163.539 94.6406C162.172 98.7422 160.674 102.583 159.047 106.164C158.852 106.62 158.656 107.043 158.461 107.434C158.266 107.824 158.103 108.215 157.973 108.605C157.257 108.801 156.605 109.029 156.02 109.289C155.434 109.549 154.88 109.842 154.359 110.168C153.643 110.624 152.927 111.014 152.211 111.34C151.495 111.6 150.746 111.73 149.965 111.73C146.84 109.452 145.212 105.513 145.082 99.9141C145.017 94.3151 146.221 87.1862 148.695 78.5273C149.151 78.2018 149.346 77.7135 149.281 77.0625V75.9883L148.305 75.8906C147.979 75.8906 147.686 75.9232 147.426 75.9883C147.165 76.0534 146.97 76.3464 146.84 76.8672C144.757 78.3646 142.478 79.9271 140.004 81.5547C137.595 83.1172 135.089 84.582 132.484 85.9492C129.88 87.2513 127.211 88.3581 124.477 89.2695C121.807 90.1159 119.203 90.5391 116.664 90.5391C110.154 90.5391 105.238 87.2188 101.918 80.5781L101.039 78.8203L100.062 80.3828C99.8672 80.7083 99.5091 81.3594 98.9883 82.3359C98.5326 83.2474 98.0443 84.3216 97.5234 85.5586C97.0677 86.7956 96.6445 88.0651 96.2539 89.3672C95.9284 90.6693 95.8307 91.8086 95.9609 92.7852C95.1797 93.5013 94.3984 94.3151 93.6172 95.2266C92.901 96.138 92.3802 97.1797 92.0547 98.3516C91.9245 98.6771 91.8919 99.0026 91.957 99.3281C92.0221 99.5885 92.1198 99.8815 92.25 100.207C92.1849 100.663 92.0547 100.988 91.8594 101.184C91.6641 101.379 91.4362 101.574 91.1758 101.77C90.8503 102.095 90.5247 102.453 90.1992 102.844C89.8737 103.169 89.5807 103.56 89.3203 104.016C89.1901 104.406 89.0924 104.829 89.0273 105.285C88.9622 105.676 88.8971 106.034 88.832 106.359C88.832 107.076 88.7344 107.564 88.5391 107.824C87.888 109.191 87.3021 110.331 86.7812 111.242C86.3255 112.089 85.8698 112.74 85.4141 113.195C84.9583 113.651 84.4701 113.944 83.9492 114.074C83.4935 114.27 82.9401 114.367 82.2891 114.367Z" fill="#F0D90B"/>
<path d="M187.763 91.9C187.763 97.7 190.23 100.6 195.163 100.6C200.563 100.6 204.197 98.7333 206.063 95C206.73 93.6667 207.063 91.9667 207.063 89.9C207.063 87.7667 206.563 85.8 205.563 84C203.897 81.1333 201.03 77.9667 196.963 74.5C190.23 68.7667 186.863 62.8333 186.863 56.7C186.863 50.5 188.797 45.7333 192.663 42.4C196.53 39.0667 200.963 37.4 205.963 37.4C210.963 37.4 214.93 38.6667 217.863 41.2C220.797 43.7333 222.263 47.5333 222.263 52.6C222.263 55.9333 221.13 58.8333 218.863 61.3C216.663 63.7667 213.73 65.3 210.063 65.9C211.73 67.3 213.397 68.7333 215.063 70.2C216.663 71.6667 218.13 73.2667 219.463 75C222.397 78.9333 223.863 83.6333 223.863 89.1C223.863 92.9 222.963 96.3333 221.163 99.4C219.43 102.467 217.13 105.067 214.263 107.2C211.463 109.267 208.297 110.867 204.763 112C201.23 113.133 197.93 113.7 194.863 113.7C188.33 113.7 183.263 112.2 179.663 109.2C175.463 105.8 173.363 100.9 173.363 94.5C173.363 90.3 174.73 86.2333 177.463 82.3C180.197 78.3667 183.097 76.4 186.163 76.4C188.563 76.4 189.763 77.1333 189.763 78.6C189.763 80.7333 189.43 82.8667 188.763 85C188.097 87.0667 187.763 89.3667 187.763 91.9ZM207.163 63.5C210.963 59.7 212.863 55.7333 212.863 51.6C212.863 50.3333 212.197 49.2667 210.863 48.4C209.397 47.6 207.863 47.2 206.263 47.2C202.663 47.2 200.063 48.3667 198.463 50.7C199.263 53.5667 200.43 56 201.963 58C203.563 60 205.297 61.8333 207.163 63.5ZM245.415 79.48C248.188 76.3333 251.735 74.76 256.055 74.76C262.241 74.76 266.161 77.2667 267.815 82.28C268.295 83.7733 268.535 85.4267 268.535 87.24C268.535 91.2933 267.201 95.2933 264.535 99.24C261.921 103.187 258.748 105.853 255.015 107.24H255.975C259.868 107.24 263.815 105.8 267.815 102.92C270.375 101.107 272.375 99.24 273.815 97.32C275.308 95.3467 276.428 94.36 277.175 94.36C277.921 94.36 278.295 95.2133 278.295 96.92C278.295 99.9067 277.015 102.92 274.455 105.96C270.615 110.333 265.708 112.893 259.735 113.64C255.415 114.12 252.348 114.2 250.535 113.88C248.721 113.56 247.335 113.16 246.375 112.68C244.295 111.613 243.255 110.013 243.255 107.88C243.255 106.707 243.495 105.64 243.975 104.68C248.188 104.68 251.388 103.08 253.575 99.88C255.761 96.68 256.855 92.68 256.855 87.88C256.855 86.7067 256.428 85.6667 255.575 84.76C254.721 83.8 253.575 83.32 252.135 83.32C250.748 83.32 249.228 83.9333 247.575 85.16C245.921 86.3867 244.588 87.9333 243.575 89.8C242.615 91.6133 241.735 93.4267 240.935 95.24C240.135 97 239.495 99.24 239.015 101.96C238.161 106.867 237.175 113.053 236.055 120.52C234.988 128.04 234.321 132.067 234.055 132.6C233.788 133.187 233.388 133.72 232.855 134.2C232.321 134.68 231.761 134.92 231.175 134.92C230.108 134.92 229.228 134.6 228.535 133.96C226.615 132.307 225.495 131.027 225.175 130.12C224.855 129.267 224.695 128.147 224.695 126.76C224.695 121.533 225.575 114.2 227.335 104.76C229.095 95.32 232.135 85.5067 236.455 75.32C237.095 73.8267 238.215 73.08 239.815 73.08C241.468 73.08 243.041 74.52 244.535 77.4C244.961 78.1467 245.255 78.84 245.415 79.48ZM283.879 113.24C278.546 113.24 275.879 108.253 275.879 98.28C275.879 92.84 276.546 87.9067 277.879 83.48C279.959 76.6533 282.306 73.24 284.919 73.24C286.466 73.24 287.692 74.28 288.599 76.36C289.346 77.96 289.692 79.5333 289.639 81.08C289.639 83.2133 288.999 86.9733 287.719 92.36C286.492 97.0533 285.879 99.96 285.879 101.08C285.879 102.2 286.146 102.973 286.679 103.4C287.266 103.827 287.932 104.04 288.679 104.04C289.479 104.04 290.466 103.533 291.639 102.52C292.812 101.507 293.986 100.413 295.159 99.24C296.332 98.0133 297.399 96.8933 298.359 95.88C299.372 94.8667 300.066 94.36 300.439 94.36C301.186 94.36 301.559 95.2667 301.559 97.08C301.559 100.813 299.666 104.467 295.879 108.04C292.146 111.56 288.146 113.293 283.879 113.24ZM287.159 66.76C285.719 64.6267 284.999 62.3333 284.999 59.88C284.999 57.4267 285.372 55.4 286.119 53.8C286.919 52.1467 287.666 50.9467 288.359 50.2C289.052 49.4 289.852 49 290.759 49C292.252 49 293.612 50.12 294.839 52.36C296.066 54.5467 296.679 56.3867 296.679 57.88C296.679 60.6533 295.692 62.84 293.719 64.44C291.799 65.9867 289.612 66.76 287.159 66.76ZM315.4 113.24C307.773 113.293 302.573 110.44 299.8 104.68C298.84 102.653 298.36 100.12 298.36 97.08C298.36 93.9867 298.627 90.7067 299.16 87.24C300.227 80.3067 302.28 73.9067 305.32 68.04C306.867 65.0533 308.6 62.4933 310.52 60.36C314.733 55.6667 319.427 53.3467 324.6 53.4C326.893 53.4 328.68 54.04 329.96 55.32C331.293 56.5467 331.96 58.3333 331.96 60.68C331.96 63.0267 331.267 65.4 329.88 67.8C328.493 70.1467 326.707 72.6 324.52 75.16C322.387 77.6667 320.013 80.3067 317.4 83.08C314.787 85.8533 312.227 88.8667 309.72 92.12V95.32C309.72 98.3067 310.36 100.493 311.64 101.88C312.92 103.267 314.413 103.96 316.12 103.96C320.707 103.96 324.76 101.693 328.28 97.16C329.72 95.2933 330.813 94.36 331.56 94.36C332.307 94.36 332.68 95.2667 332.68 97.08C332.68 98.8933 332.173 100.76 331.16 102.68C330.2 104.547 328.92 106.28 327.32 107.88C325.72 109.427 323.88 110.707 321.8 111.72C319.72 112.733 317.587 113.24 315.4 113.24ZM319.72 70.28C320.84 68.8933 321.72 67.64 322.36 66.52C323 65.4 323.32 64.2533 323.32 63.08C323.32 61.8533 322.893 61.24 322.04 61.24C320.173 61.24 318.093 63.16 315.8 67C313.56 70.84 311.88 75.88 310.76 82.12C312.573 79.3467 314.227 77.0267 315.72 75.16C317.267 73.2933 318.6 71.6667 319.72 70.28ZM377.071 94.12C378.031 94.12 378.511 95.3467 378.511 97.8C378.511 99.1333 377.951 100.76 376.831 102.68C375.711 104.547 374.244 106.28 372.431 107.88C370.671 109.427 368.697 110.707 366.511 111.72C364.324 112.733 362.191 113.24 360.111 113.24C357.284 113.24 355.391 110.76 354.431 105.8C353.044 108.093 351.231 109.987 348.991 111.48C346.751 112.92 343.737 113.64 339.951 113.64C336.217 113.64 333.204 112.467 330.911 110.12C328.617 107.773 327.497 104.92 327.551 101.56C327.551 92.4933 330.564 85.3467 336.591 80.12C339.151 77.9333 341.524 76.4933 343.711 75.8C345.951 75.1067 348.297 74.76 350.751 74.76C353.204 74.76 355.204 75.1867 356.751 76.04C357.497 74.4933 358.351 73.72 359.311 73.72C361.177 73.72 362.937 74.5467 364.591 76.2C366.297 77.8 367.151 79.32 367.151 80.76C366.404 82.52 365.311 84.6267 363.871 87.08C363.444 89.5333 363.231 92.9733 363.231 97.4C363.231 101.827 363.791 104.04 364.911 104.04C366.297 104.04 369.657 101.267 374.991 95.72C375.951 94.6533 376.644 94.12 377.071 94.12ZM339.311 98.92C339.311 103.027 340.831 105.08 343.871 105.08C347.124 105.027 349.817 103.293 351.951 99.88C352.697 98.7067 353.311 97.2667 353.791 95.56C353.791 89.5867 354.324 84.4667 355.391 80.2C351.071 81.0533 347.311 83.1333 344.111 86.44C340.911 89.7467 339.311 93.9067 339.311 98.92ZM386.193 99.56L386.673 109.32C386.673 110.6 386.007 111.747 384.673 112.76C383.34 113.773 381.527 114.28 379.233 114.28C377.9 114.28 376.967 113.587 376.433 112.2C375.953 110.813 375.713 108.787 375.713 106.12C375.713 100.52 375.98 96.1467 376.513 93C377.1 89.8 378.22 86.5733 379.873 83.32C377.42 80.9733 376.193 78.9467 376.193 77.24C376.193 73.6667 378.113 71.88 381.953 71.88C383.927 71.88 385.66 72.92 387.153 75C388.22 76.44 388.993 78.12 389.473 80.04C390.22 80.3067 391.153 80.44 392.273 80.44C393.82 80.44 395.607 79.9333 397.633 78.92L399.713 77.88C400.353 77.56 400.913 77.4 401.393 77.4C402.94 77.4 404.487 79.6667 406.033 84.2C405.553 86.28 405.02 88.28 404.433 90.2C403.9 92.12 403.26 94.44 402.513 97.16C401.767 99.88 401.367 101.72 401.313 102.68C401.313 103.587 401.607 104.04 402.193 104.04C402.993 104.04 403.98 103.533 405.153 102.52C406.327 101.507 407.5 100.413 408.673 99.24C409.847 98.0133 410.913 96.8933 411.873 95.88C412.887 94.8667 413.58 94.36 413.953 94.36C414.7 94.36 415.073 95.2667 415.073 97.08C415.073 100.76 413.447 104.387 410.193 107.96C406.993 111.533 403.313 113.293 399.153 113.24C396.7 113.24 394.86 112.253 393.633 110.28C392.407 108.307 391.767 105.907 391.713 103.08C391.713 97.48 392.967 92.1733 395.473 87.16C394.3 87.64 392.967 87.88 391.473 87.88C390.033 87.88 388.993 87.8267 388.353 87.72C387.873 89.7467 387.393 91.8 386.913 93.88C386.433 95.9067 386.193 97.8 386.193 99.56ZM420.676 113.24C415.342 113.24 412.676 108.253 412.676 98.28C412.676 92.84 413.342 87.9067 414.676 83.48C416.756 76.6533 419.102 73.24 421.716 73.24C423.262 73.24 424.489 74.28 425.396 76.36C426.142 77.96 426.489 79.5333 426.436 81.08C426.436 83.2133 425.796 86.9733 424.516 92.36C423.289 97.0533 422.676 99.96 422.676 101.08C422.676 102.2 422.942 102.973 423.476 103.4C424.062 103.827 424.729 104.04 425.476 104.04C426.276 104.04 427.262 103.533 428.436 102.52C429.609 101.507 430.782 100.413 431.956 99.24C433.129 98.0133 434.196 96.8933 435.156 95.88C436.169 94.8667 436.862 94.36 437.236 94.36C437.982 94.36 438.356 95.2667 438.356 97.08C438.356 100.813 436.462 104.467 432.676 108.04C428.942 111.56 424.942 113.293 420.676 113.24ZM423.956 66.76C422.516 64.6267 421.796 62.3333 421.796 59.88C421.796 57.4267 422.169 55.4 422.916 53.8C423.716 52.1467 424.462 50.9467 425.156 50.2C425.849 49.4 426.649 49 427.556 49C429.049 49 430.409 50.12 431.636 52.36C432.862 54.5467 433.476 56.3867 433.476 57.88C433.476 60.6533 432.489 62.84 430.516 64.44C428.596 65.9867 426.409 66.76 423.956 66.76ZM439.557 106.6L436.917 102.76L452.437 91.96L436.757 81L439.557 77L460.837 91.8L439.557 106.6Z" fill="#040000"/>
</svg>
